<?xml version="1.0" encoding="UTF-8" standalone="no"?>
<svg width="144px" height="44px" viewBox="0 0 144 44" version="1.1" xmlns="http://www.w3.org/2000/svg" xmlns:xlink="http://www.w3.org/1999/xlink">
    <!-- Generator: Sketch 39.1 (31720) - http://www.bohemiancoding.com/sketch -->
    <title>Download_on_the_App_Store_Badge_US-UK_135x40</title>
    <desc>Created with Sketch.</desc>
    <defs></defs>
    <g id="Welcome" stroke="none" stroke-width="1" fill="none" fill-rule="evenodd">
        <g id="Desktop" transform="translate(-294.000000, -428.000000)">
            <g id="Group-3" transform="translate(119.000000, 428.000000)">
                <g id="Download_on_the_App_Store_Badge_US-UK_135x40" transform="translate(175.000000, 0.000000)">
                    <g id="US_UK_Download_on_the">
                        <g id="Group">
                            <path d="M138.156157,43.1959247 L5.01809156,43.1959247 C2.25172135,43.1959247 0,40.8979015 0,38.0847669 L0,5.10359851 C0,2.28938401 2.25172135,0 5.01809156,0 L138.156157,0 C140.921466,0 143.252772,2.28938401 143.252772,5.10359851 L143.252772,38.0847669 C143.252772,40.8979015 140.921466,43.1959247 138.156157,43.1959247 L138.156157,43.1959247 L138.156157,43.1959247 Z" id="Shape" fill="#A6A6A6"></path>
                            <path d="M142.225597,38.0858468 C142.225597,40.3709113 140.406817,42.2218566 138.157218,42.2218566 L5.01809156,42.2218566 C2.7695536,42.2218566 0.944407165,40.3709113 0.944407165,38.0858468 L0.944407165,5.10251861 C0.944407165,2.81853409 2.7695536,0.961109325 5.01809156,0.961109325 L138.156157,0.961109325 C140.406817,0.961109325 142.224536,2.81853409 142.224536,5.10251861 L142.225597,38.0858468 L142.225597,38.0858468 L142.225597,38.0858468 Z" id="Shape" fill="#000000"></path>
                            <g transform="translate(13.412503, 6.479389)" id="Shape" fill="#FFFFFF">
                                <path d="M18.5572714,14.8853157 C18.5264986,11.404804 21.3575978,9.71152378 21.4870559,9.63269122 C19.883686,7.25367566 17.3985156,6.92862633 16.5252043,6.90270877 C14.4379583,6.67916986 12.4133192,8.17374886 11.3500653,8.17374886 C10.2655887,8.17374886 8.62826258,6.92430673 6.86360065,6.96102327 C4.59277893,6.99665991 2.46839337,8.33465368 1.30327082,10.4123777 C-1.10125349,14.648818 0.692058996,20.8744306 2.9957758,24.2987876 C4.14816477,25.9758693 5.49474083,27.8484127 7.25728049,27.7825389 C8.98161942,27.7101857 9.62572633,26.6637644 11.7066055,26.6637644 C13.7683843,26.6637644 14.3732293,27.7825389 16.1707863,27.7404229 C18.0213999,27.7101857 19.1865225,26.0557818 20.2985884,24.3635814 C21.6303086,22.4413628 22.165119,20.5483014 22.1863416,20.4511106 C22.1428352,20.435992 18.5922887,19.0569621 18.5572714,14.8853157 L18.5572714,14.8853157 Z"></path>
                                <path d="M15.1616501,4.6500413 C16.0890792,3.46971265 16.7236359,1.86390415 16.5474881,0.234337892 C15.2051565,0.294812186 13.5264463,1.17924875 12.5597553,2.33365983 C11.7044832,3.35092386 10.9404684,5.01828656 11.1378389,6.58629862 C12.645707,6.70076782 14.1938981,5.81201167 15.1616501,4.6500413 L15.1616501,4.6500413 Z"></path>
                            </g>
                            <g transform="translate(44.567529, 19.438166)" id="Shape" fill="#FFFFFF">
                                <path d="M12.356878,14.5829442 L9.94704805,14.5829442 L8.62700029,10.3616224 L4.03866705,10.3616224 L2.78122605,14.5829442 L0.435063975,14.5829442 L4.98095195,0.211660031 L7.78870628,0.211660031 L12.356878,14.5829442 L12.356878,14.5829442 Z M8.22907592,8.59058953 L7.03530282,4.83794357 C6.90902815,4.45457974 6.67239579,3.55178491 6.32328348,2.13063899 L6.28083821,2.13063899 C6.14182997,2.74186132 5.91793119,3.64465615 5.61020301,4.83794357 L4.43765255,8.59058953 L8.22907592,8.59058953 L8.22907592,8.59058953 Z"></path>
                                <path d="M24.0473654,9.27416504 C24.0473654,11.0365588 23.5794063,12.4296273 22.6434882,13.4522909 C21.8051942,14.362645 20.7642241,14.8172821 19.5216389,14.8172821 C18.1803685,14.8172821 17.216861,14.3270083 16.6300552,13.3464608 L16.5876099,13.3464608 L16.5876099,18.8053458 L14.3252772,18.8053458 L14.3252772,7.63164 C14.3252772,6.52366453 14.2966267,5.38653181 14.2414478,4.22024185 L16.2310697,4.22024185 L16.3573443,5.86276688 L16.3997896,5.86276688 C17.1542542,4.62520364 18.2992152,4.00750192 19.8357339,4.00750192 C21.0369349,4.00750192 22.0397043,4.49021638 22.8419198,5.45672519 C23.6462576,6.42431391 24.0473654,7.69643389 24.0473654,9.27416504 L24.0473654,9.27416504 Z M21.7425874,9.35839709 C21.7425874,8.34977225 21.5197498,7.5182507 21.0719522,6.86383244 C20.5827705,6.18133683 19.9259301,5.84008902 19.1024919,5.84008902 C18.5443367,5.84008902 18.0371157,6.03015109 17.5840125,6.40487574 C17.1298482,6.78284008 16.8327313,7.27635352 16.6937231,7.88757586 C16.6236884,8.17266896 16.588671,8.40592695 16.588671,8.58950963 L16.588671,10.3173466 C16.588671,11.0711155 16.8157532,11.7071755 17.2699175,12.2266065 C17.7240819,12.7460375 18.3140711,13.005213 19.0398851,13.005213 C19.8919738,13.005213 20.5551811,12.6704446 21.029507,12.0030676 C21.5048939,11.3346107 21.7425874,10.4534138 21.7425874,9.35839709 L21.7425874,9.35839709 Z"></path>
                                <path d="M35.7590754,9.27416504 C35.7590754,11.0365588 35.2911163,12.4296273 34.3541371,13.4522909 C33.5169042,14.362645 32.475934,14.8172821 31.2333489,14.8172821 C29.8920785,14.8172821 28.9285709,14.3270083 28.3428263,13.3464608 L28.300381,13.3464608 L28.300381,18.8053458 L26.0380483,18.8053458 L26.0380483,7.63164 C26.0380483,6.52366453 26.0093978,5.38653181 25.9542189,4.22024185 L27.9438408,4.22024185 L28.0701154,5.86276688 L28.1125607,5.86276688 C28.8659642,4.62520364 30.0109252,4.00750192 31.548505,4.00750192 C32.7486449,4.00750192 33.7514143,4.49021638 34.5557521,5.45672519 C35.3569065,6.42431391 35.7590754,7.69643389 35.7590754,9.27416504 L35.7590754,9.27416504 Z M33.4542974,9.35839709 C33.4542974,8.34977225 33.2303986,7.5182507 32.7826011,6.86383244 C32.2934194,6.18133683 31.6387012,5.84008902 30.8142019,5.84008902 C30.2549855,5.84008902 29.7488257,6.03015109 29.2946614,6.40487574 C28.840497,6.78284008 28.5444413,7.27635352 28.405433,7.88757586 C28.3364595,8.17266896 28.300381,8.40592695 28.300381,8.58950963 L28.300381,10.3173466 C28.300381,11.0711155 28.5274632,11.7071755 28.9795053,12.2266065 C29.4336696,12.7449576 30.0236588,13.005213 30.7515951,13.005213 C31.6036838,13.005213 32.2668911,12.6704446 32.7412169,12.0030676 C33.2166039,11.3346107 33.4542974,10.4534138 33.4542974,9.35839709 L33.4542974,9.35839709 Z"></path>
                                <path d="M48.8534399,10.5527644 C48.8534399,11.7752091 48.4364151,12.7697952 47.5991823,13.5376028 C46.6791811,14.3766836 45.3983952,14.7956841 43.75258,14.7956841 C42.2330395,14.7956841 41.0148604,14.4976322 40.092737,13.9004486 L40.616936,11.9814696 C41.6101552,12.592692 42.6999375,12.899383 43.8873438,12.899383 C44.7394325,12.899383 45.4026398,12.7028416 45.8790879,12.3119184 C46.3534137,11.9209953 46.5900461,11.3961648 46.5900461,10.7417466 C46.5900461,10.1586016 46.3947978,9.66724796 46.0032403,9.26876555 C45.613805,8.87028314 44.9633313,8.49987809 44.0550026,8.15755039 C41.5825658,7.21911892 40.3474086,5.84440862 40.3474086,4.03665917 C40.3474086,2.85525062 40.7803503,1.88658201 41.6472949,1.13281313 C42.511056,0.377964341 43.663445,0.00107989812 45.1044618,0.00107989812 C46.3894922,0.00107989812 47.4569906,0.228938401 48.3090793,0.683575509 L47.7434962,2.56043844 C46.9476474,2.11984001 46.0478078,1.89954079 45.0407939,1.89954079 C44.2449451,1.89954079 43.623122,2.09932194 43.1774467,2.49672445 C42.800745,2.85201093 42.6118635,3.28505008 42.6118635,3.79800168 C42.6118635,4.36602809 42.8272732,4.83578377 43.260215,5.20510893 C43.6369167,5.54635674 44.3213466,5.91568189 45.3145658,6.3141643 C46.5295616,6.81199733 47.4219733,7.39406242 47.9960455,8.06143945 C48.5679955,8.72665669 48.8534399,9.55925814 48.8534399,10.5527644 L48.8534399,10.5527644 Z"></path>
                                <path d="M56.3333568,5.94807884 L53.8396975,5.94807884 L53.8396975,10.9793242 C53.8396975,12.2590034 54.279006,12.8983031 55.1597452,12.8983031 C55.5640364,12.8983031 55.899354,12.8626665 56.1646369,12.7913932 L56.2272437,14.5397483 C55.7815684,14.7092923 55.1947626,14.7946042 54.4678874,14.7946042 C53.5744146,14.7946042 52.8761899,14.5170704 52.3721524,13.9630827 C51.8702371,13.408015 51.6176878,12.4771429 51.6176878,11.1693862 L51.6176878,5.94591904 L50.1321035,5.94591904 L50.1321035,4.21808205 L51.6176878,4.21808205 L51.6176878,2.32070106 L53.8396975,1.63820545 L53.8396975,4.21808205 L56.3333568,4.21808205 L56.3333568,5.94807884 L56.3333568,5.94807884 Z"></path>
                                <path d="M67.5845357,9.31628107 C67.5845357,10.9091308 67.1367381,12.2168874 66.2432653,13.2395509 C65.306286,14.2924516 64.0626398,14.8172821 62.5123264,14.8172821 C61.0182531,14.8172821 59.8287245,14.3129697 58.9416184,13.3043448 C58.0545124,12.29572 57.6109593,11.0225201 57.6109593,9.48798487 C57.6109593,7.88217637 58.067246,6.56686046 58.9830026,5.54419694 C59.8966369,4.52045352 61.1296719,4.00858182 62.6799852,4.00858182 C64.1740586,4.00858182 65.3763207,4.51289424 66.2835883,5.52259898 C67.151594,6.50206657 67.5845357,7.76662727 67.5845357,9.31628107 L67.5845357,9.31628107 Z M65.2373125,9.39079404 C65.2373125,8.4350842 65.0367586,7.61544153 64.6303452,6.93186602 C64.1560193,6.10466406 63.4779562,5.69214298 62.5993392,5.69214298 C61.6899494,5.69214298 60.9991527,6.10574396 60.5248268,6.93186602 C60.1184134,7.61652143 59.9178595,8.44912288 59.9178595,9.43398996 C59.9178595,10.3896998 60.1184134,11.2093425 60.5248268,11.8918381 C61.0140085,12.71904 61.6973773,13.1315611 62.5791777,13.1315611 C63.4429389,13.1315611 64.121002,12.7104009 64.6101837,11.8702401 C65.0272084,11.1737058 65.2373125,10.345424 65.2373125,9.39079404 L65.2373125,9.39079404 Z"></path>
                                <path d="M74.938178,6.24505082 C74.7142792,6.20293479 74.4755246,6.18133683 74.2250975,6.18133683 C73.4292488,6.18133683 72.8137924,6.486948 72.3808507,7.09925023 C72.004149,7.63919929 71.8152676,8.3216949 71.8152676,9.14565716 L71.8152676,14.5829442 L69.553996,14.5829442 L69.5752187,7.48369396 C69.5752187,6.28932664 69.5465681,5.20186924 69.4903281,4.22132174 L71.4608496,4.22132174 L71.5436179,6.20401469 L71.6062246,6.20401469 C71.8449792,5.52259898 72.221681,4.97401073 72.737391,4.56256955 C73.2414285,4.1921645 73.785789,4.00750192 74.3725948,4.00750192 C74.5816378,4.00750192 74.7705192,4.02262049 74.938178,4.04961794 L74.938178,6.24505082 L74.938178,6.24505082 Z"></path>
                                <path d="M85.0560682,8.91131927 C85.0560682,9.32384035 85.02954,9.67156755 84.9733,9.95558075 L78.186302,9.95558075 C78.2128303,10.9793242 78.5407199,11.7622503 79.1710321,12.3021994 C79.7429821,12.7849138 80.4825909,13.026811 81.3909195,13.026811 C82.3958112,13.026811 83.312629,12.8637464 84.1371282,12.5365373 L84.4915462,14.1347865 C83.5280387,14.5624261 82.3905056,14.7751661 81.0778857,14.7751661 C79.4989218,14.7751661 78.2595201,14.3021707 77.3575582,13.3572598 C76.4577185,12.412349 76.0067376,11.1434687 76.0067376,9.55169886 C76.0067376,7.98908628 76.4258846,6.68780905 77.2652397,5.65002696 C78.1438567,4.54205149 79.331263,3.98806375 80.8253364,3.98806375 C82.2928814,3.98806375 83.4038863,4.54205149 84.1583509,5.65002696 C84.755768,6.53014392 85.0560682,7.61868122 85.0560682,8.91131927 L85.0560682,8.91131927 Z M82.8987876,8.31413561 C82.9136435,7.63164 82.7661462,7.04201563 82.4594791,6.5441826 C82.0679215,5.90380301 81.4662599,5.58415317 80.6566164,5.58415317 C79.9170077,5.58415317 79.315346,5.89624373 78.855876,6.52258463 C78.4791743,7.02041767 78.2552755,7.61760133 78.186302,8.31305572 L82.8987876,8.31305572 L82.8987876,8.31413561 Z"></path>
                            </g>
                            <g transform="translate(46.307584, 6.479389)" id="Shape" fill="#FFFFFF">
                                <path d="M5.74092337,4.32931156 C5.74092337,5.60035164 5.3663439,6.55714137 4.61824609,7.19968076 C3.92532712,7.79254482 2.94059695,8.0895168 1.66511672,8.0895168 C1.03268225,8.0895168 0.491505115,8.06143945 0.0384019017,8.00528475 L0.0384019017,1.06045995 C0.629452229,0.963269122 1.26613122,0.913593808 1.95374452,0.913593808 C3.16874026,0.913593808 4.08449687,1.18248844 4.70207549,1.7202777 C5.39393332,2.32826034 5.74092337,3.19757833 5.74092337,4.32931156 L5.74092337,4.32931156 Z M4.5683729,4.3606286 C4.5683729,3.53666634 4.35402431,2.90492594 3.92532712,2.46432751 C3.49662994,2.02480897 2.87056227,1.80450976 2.04606298,1.80450976 C1.69588953,1.80450976 1.39771154,1.82826751 1.15046787,1.87794283 L1.15046787,7.15756473 C1.28735385,7.17916269 1.53778092,7.18888177 1.90174907,7.18888177 C2.75277665,7.18888177 3.40961714,6.94806449 3.87227054,6.46642993 C4.33492394,5.98479537 4.5683729,5.28286159 4.5683729,4.3606286 L4.5683729,4.3606286 Z"></path>
                                <path d="M11.9580937,5.43944682 C11.9580937,6.22237296 11.7384394,6.86383244 11.2991309,7.36706496 C10.8385998,7.88433616 10.2284491,8.14243181 9.46655658,8.14243181 C8.73225348,8.14243181 8.14756994,7.89513514 7.71144484,7.39838201 C7.27638086,6.90270877 7.05884887,6.27744776 7.05884887,5.52367888 C7.05884887,4.73535325 7.28274765,4.08849428 7.73266747,3.58634165 C8.18258729,3.08418903 8.78743233,2.83257276 9.54932485,2.83257276 C10.2836279,2.83257276 10.8736171,3.07986943 11.3203536,3.57554267 C11.7448062,4.05717723 11.9580937,4.67919855 11.9580937,5.43944682 L11.9580937,5.43944682 Z M10.8046436,5.47616336 C10.8046436,5.00640768 10.7048972,4.60360568 10.5064656,4.26775736 C10.2730166,3.86171567 9.94088243,3.65869482 9.50900185,3.65869482 C9.06226542,3.65869482 8.7227033,3.86171567 8.48925433,4.26775736 C8.28976158,4.60360568 8.19107634,5.01288707 8.19107634,5.49668142 C8.19107634,5.9664371 8.29082272,6.3692391 8.48925433,6.70508742 C8.73013122,7.11112911 9.06544882,7.31414996 9.49839053,7.31414996 C9.92284319,7.31414996 10.2560385,7.10788941 10.4958543,6.69428844 C10.7017138,6.35196073 10.8046436,5.94591904 10.8046436,5.47616336 L10.8046436,5.47616336 Z"></path>
                                <path d="M20.2943439,2.93624298 L18.7291747,8.02688271 L17.7104883,8.02688271 L17.0621369,5.81633127 C16.8976615,5.26450333 16.7639589,4.71591508 16.659968,4.17164643 L16.6398065,4.17164643 C16.5432435,4.73103366 16.4095409,5.278542 16.2376376,5.81633127 L15.5489632,8.02688271 L14.5186043,8.02688271 L13.0468148,2.93624298 L14.1896535,2.93624298 L14.7552367,5.35629467 C14.8921227,5.92864067 15.0046026,6.47398922 15.0947988,6.99018052 L15.1149603,6.99018052 C15.1977286,6.56470066 15.3346146,6.02259181 15.5277405,5.36709365 L16.2376376,2.93732288 L17.143844,2.93732288 L17.8240294,5.31525854 C17.9885048,5.89516383 18.1222074,6.45347116 18.2251372,6.99126042 L18.25591,6.99126042 C18.3312504,6.46750983 18.4447914,5.9092025 18.5954721,5.31525854 L19.2024394,2.93732288 L20.2943439,2.93732288 L20.2943439,2.93624298 Z"></path>
                                <path d="M26.0594721,8.02688271 L24.9474062,8.02688271 L24.9474062,5.11115779 C24.9474062,4.21268256 24.6120886,3.76344494 23.9393311,3.76344494 C23.6093192,3.76344494 23.3429751,3.88655333 23.1360544,4.13385 C22.931256,4.38114667 22.8272651,4.67271916 22.8272651,5.00640768 L22.8272651,8.02580282 L21.7151992,8.02580282 L21.7151992,4.39086575 C21.7151992,3.94378793 21.7014045,3.45891367 21.6748762,2.93408319 L22.6521784,2.93408319 L22.7041739,3.7299681 L22.7349467,3.7299681 C22.8644047,3.48267143 23.0575307,3.27857069 23.3111412,3.11550607 C23.6125026,2.925444 23.9499424,2.82933307 24.3192162,2.82933307 C24.7861142,2.82933307 25.1744883,2.9826786 25.4832777,3.29044957 C25.8674073,3.66733401 26.0594721,4.22996093 26.0594721,4.97725043 L26.0594721,8.02688271 L26.0594721,8.02688271 Z"></path>
                                <polygon points="29.4195767 8.02688271 28.0151378 8.02688271 28.0151378 0.600423354 29.4195767 0.600423354"></polygon>
                                <path d="M35.6733249,5.43944682 C35.6733249,6.22237296 35.4536706,6.86383244 35.0143621,7.36706496 C34.553831,7.88433616 33.9426191,8.14243181 33.1817877,8.14243181 C32.4464235,8.14243181 31.86174,7.89513514 31.426676,7.39838201 C30.991612,6.90270877 30.77408,6.27744776 30.77408,5.52367888 C30.77408,4.73535325 30.9979788,4.08849428 31.4478986,3.58634165 C31.8978185,3.08418903 32.5026635,2.83257276 33.2634949,2.83257276 C33.9988591,2.83257276 34.5877872,3.07986943 35.0355847,3.57554267 C35.4600374,4.05717723 35.6733249,4.67919855 35.6733249,5.43944682 L35.6733249,5.43944682 Z M34.5188136,5.47616336 C34.5188136,5.00640768 34.4190672,4.60360568 34.2206356,4.26775736 C33.9882478,3.86171567 33.6550525,3.65869482 33.224233,3.65869482 C32.7764355,3.65869482 32.4368733,3.86171567 32.2044855,4.26775736 C32.0049927,4.60360568 31.9063075,5.01288707 31.9063075,5.49668142 C31.9063075,5.9664371 32.0060539,6.3692391 32.2044855,6.70508742 C32.4453624,7.11112911 32.78068,7.31414996 33.2136217,7.31414996 C33.6380744,7.31414996 33.9702086,7.10788941 34.2100243,6.69428844 C34.416945,6.35196073 34.5188136,5.94591904 34.5188136,5.47616336 L34.5188136,5.47616336 Z"></path>
                                <path d="M41.0553846,8.02688271 L40.0568597,8.02688271 L39.9740914,7.44049804 L39.9433186,7.44049804 C39.6016342,7.90809392 39.1145748,8.14243181 38.4821403,8.14243181 C38.0099367,8.14243181 37.6279293,7.98800638 37.3403627,7.68131532 C37.0793243,7.4027016 36.9488051,7.05605431 36.9488051,6.64461312 C36.9488051,6.02259181 37.2034767,5.54851653 37.7160033,5.2202275 C38.2274687,4.89193848 38.946916,4.73103366 39.8732839,4.73859294 L39.8732839,4.64356191 C39.8732839,3.97294518 39.527355,3.63817676 38.834436,3.63817676 C38.3410098,3.63817676 37.9059458,3.76452484 37.5303052,4.0150612 L37.3042842,3.2720913 C37.7690599,2.97943891 38.3431321,2.83257276 39.0201341,2.83257276 C40.3274483,2.83257276 40.9832276,3.53450654 40.9832276,4.9383741 L40.9832276,6.81307723 C40.9832276,7.32170924 41.0076336,7.72667104 41.0553846,8.02688271 L41.0553846,8.02688271 Z M39.9008733,6.27744776 L39.9008733,5.49236183 C38.6742051,5.47076387 38.0608711,5.81309157 38.0608711,6.51826504 C38.0608711,6.78391998 38.1309057,6.98262123 38.2741585,7.1154487 C38.4174113,7.24827617 38.5999259,7.31414996 38.8174579,7.31414996 C39.0615182,7.31414996 39.2896615,7.23531739 39.4976433,7.07873217 C39.7066862,6.92106704 39.8350832,6.72128589 39.8828341,6.47614902 C39.8945065,6.42107421 39.9008733,6.35412053 39.9008733,6.27744776 L39.9008733,6.27744776 Z"></path>
                                <path d="M47.3744235,8.02688271 L46.3875711,8.02688271 L46.3355756,7.20939984 L46.3048028,7.20939984 C45.9896467,7.83142115 45.4527141,8.14243181 44.6982495,8.14243181 C44.0955267,8.14243181 43.5936115,7.90161453 43.1956871,7.41997997 C42.7977627,6.93834541 42.5993311,6.3130844 42.5993311,5.54527684 C42.5993311,4.72131457 42.8147408,4.05393754 43.2476825,3.54422562 C43.6668295,3.06907045 44.1804173,2.83149287 44.7916291,2.83149287 C45.4633254,2.83149287 45.9334067,3.06151117 46.2008119,3.52262766 L46.2220345,3.52262766 L46.2220345,0.600423354 L47.3351616,0.600423354 L47.3351616,6.6554121 C47.3351616,7.15108534 47.3478952,7.60788224 47.3744235,8.02688271 L47.3744235,8.02688271 Z M46.2220345,5.88004525 L46.2220345,5.03124533 C46.2220345,4.88437919 46.2114232,4.7655904 46.1912617,4.67487895 C46.128655,4.40274463 45.9938912,4.17380623 45.7890928,3.98914365 C45.5821722,3.80448107 45.3328062,3.71160983 45.0452396,3.71160983 C44.6303371,3.71160983 44.3056308,3.87899404 44.0668762,4.21484236 C43.8302438,4.55069067 43.7103359,4.97941022 43.7103359,5.50316081 C43.7103359,6.00639333 43.823877,6.41459482 44.0520203,6.72884518 C44.2928972,7.06361359 44.6176035,7.2309978 45.0240169,7.2309978 C45.3890462,7.2309978 45.6808574,7.09169094 45.9026339,6.81199733 C46.1169825,6.55390168 46.2220345,6.24289102 46.2220345,5.88004525 L46.2220345,5.88004525 Z"></path>
                                <path d="M56.8853465,5.43944682 C56.8853465,6.22237296 56.6656922,6.86383244 56.2263837,7.36706496 C55.7658526,7.88433616 55.156763,8.14243181 54.3938094,8.14243181 C53.6605674,8.14243181 53.0758839,7.89513514 52.6386976,7.39838201 C52.2036336,6.90270877 51.9861016,6.27744776 51.9861016,5.52367888 C51.9861016,4.73535325 52.2100004,4.08849428 52.6599202,3.58634165 C53.1098401,3.08418903 53.7146851,2.83257276 54.4776388,2.83257276 C55.2108807,2.83257276 55.8019311,3.07986943 56.2476063,3.57554267 C56.672059,4.05717723 56.8853465,4.67919855 56.8853465,5.43944682 L56.8853465,5.43944682 Z M55.7329575,5.47616336 C55.7329575,5.00640768 55.6332111,4.60360568 55.4347795,4.26775736 C55.2002694,3.86171567 54.8691963,3.65869482 54.4362546,3.65869482 C53.9905793,3.65869482 53.6510172,3.86171567 53.4165071,4.26775736 C53.2170144,4.60360568 53.1183291,5.01288707 53.1183291,5.49668142 C53.1183291,5.9664371 53.2180755,6.3692391 53.4165071,6.70508742 C53.657384,7.11112911 53.9927016,7.31414996 54.4256433,7.31414996 C54.850096,7.31414996 55.1843524,7.10788941 55.4241682,6.69428844 C55.6289666,6.35196073 55.7329575,5.94591904 55.7329575,5.47616336 L55.7329575,5.47616336 Z"></path>
                                <path d="M62.8648233,8.02688271 L61.7538185,8.02688271 L61.7538185,5.11115779 C61.7538185,4.21268256 61.4185009,3.76344494 60.7446823,3.76344494 C60.4146703,3.76344494 60.1483263,3.88655333 59.9424667,4.13385 C59.7366072,4.38114667 59.6336774,4.67271916 59.6336774,5.00640768 L59.6336774,8.02580282 L58.5205503,8.02580282 L58.5205503,4.39086575 C58.5205503,3.94378793 58.5078167,3.45891367 58.4812885,2.93408319 L59.4575296,2.93408319 L59.509525,3.7299681 L59.5402978,3.7299681 C59.670817,3.48267143 59.863943,3.27857069 60.1164923,3.11550607 C60.4189148,2.925444 60.7552936,2.82933307 61.1256285,2.82933307 C61.5914653,2.82933307 61.9798395,2.9826786 62.2886288,3.29044957 C62.6738196,3.66733401 62.8648233,4.22996093 62.8648233,4.97725043 L62.8648233,8.02688271 L62.8648233,8.02688271 Z"></path>
                                <path d="M70.3489848,3.78396301 L69.1244389,3.78396301 L69.1244389,6.2569297 C69.1244389,6.8854304 69.3419709,7.19968076 69.7727903,7.19968076 C69.9722831,7.19968076 70.1378196,7.18240239 70.2683388,7.14676575 L70.2969893,8.00528475 C70.0773351,8.0895168 69.7887073,8.13163283 69.4332282,8.13163283 C68.9939197,8.13163283 68.6522353,7.99556567 68.4049916,7.72343134 C68.1566868,7.45129702 68.0335955,6.99342021 68.0335955,6.35088083 L68.0335955,3.78396301 L67.3024758,3.78396301 L67.3024758,2.93624298 L68.0335955,2.93624298 L68.0335955,2.00321101 L69.1233777,1.66844259 L69.1233777,2.93516309 L70.3479237,2.93516309 L70.3479237,3.78396301 L70.3489848,3.78396301 Z"></path>
                                <path d="M76.2361432,8.02688271 L75.1230161,8.02688271 L75.1230161,5.13275576 C75.1230161,4.22024185 74.7876985,3.76344494 74.1160021,3.76344494 C73.6002922,3.76344494 73.2479964,4.02801998 73.0548705,4.55717006 C73.0219754,4.66839957 73.002875,4.80446673 73.002875,4.96429165 L73.002875,8.02580282 L71.8918702,8.02580282 L71.8918702,0.600423354 L73.002875,0.600423354 L73.002875,3.66841391 L73.0240977,3.66841391 C73.3742711,3.11010658 73.8761864,2.83149287 74.5266601,2.83149287 C74.9871912,2.83149287 75.3681375,2.9848384 75.67056,3.29260936 C76.0472617,3.67597319 76.2361432,4.2461594 76.2361432,4.99992829 L76.2361432,8.02688271 L76.2361432,8.02688271 Z"></path>
                                <path d="M82.3089996,5.24074557 C82.3089996,5.44376641 82.2941437,5.61439032 82.2676154,5.75369717 L78.9324787,5.75369717 C78.9473345,6.2569297 79.1065043,6.64029353 79.4152936,6.90594847 C79.6975546,7.14352605 80.0615227,7.26231485 80.507198,7.26231485 C81.0006243,7.26231485 81.4505441,7.18240239 81.8558964,7.02149757 L82.029922,7.8076634 C81.5555961,8.01716363 80.9974409,8.12191375 80.3512117,8.12191375 C79.5765856,8.12191375 78.9664349,7.88973565 78.5250041,7.42537946 C78.0814511,6.96102327 77.8617968,6.33792206 77.8617968,5.55607582 C77.8617968,4.78826826 78.0665953,4.14896857 78.4793755,3.63925666 C78.9101949,3.09498801 79.4927562,2.82285368 80.2281204,2.82285368 C80.9475677,2.82285368 81.4940505,3.09498801 81.8633243,3.63925666 C82.1615023,4.07121591 82.3089996,4.60576547 82.3089996,5.24074557 L82.3089996,5.24074557 Z M81.2478679,4.94809318 C81.256357,4.61224486 81.1831389,4.32283217 81.0324582,4.07877519 C80.8393322,3.76452484 80.5453988,3.60685972 80.1474744,3.60685972 C79.7845674,3.60685972 79.4885117,3.76020525 79.2624906,4.06797621 C79.0778537,4.31311308 78.9685572,4.60576547 78.9324787,4.94809318 L81.2478679,4.94809318 L81.2478679,4.94809318 Z"></path>
                            </g>
                        </g>
                    </g>
                </g>
            </g>
        </g>
    </g>
</svg>