<?xml version="1.0" encoding="UTF-8" standalone="no"?>
<svg width="143px" height="44px" viewBox="0 0 143 44" version="1.1" xmlns="http://www.w3.org/2000/svg" xmlns:xlink="http://www.w3.org/1999/xlink">
    <!-- Generator: Sketch 39.1 (31720) - http://www.bohemiancoding.com/sketch -->
    <title>google-play-badge</title>
    <desc>Created with Sketch.</desc>
    <defs>
        <linearGradient x1="91.2784615%" y1="4.8388%" x2="-37.8169231%" y2="71.9684%" id="linearGradient-1">
            <stop stop-color="#00A0FF" offset="0%"></stop>
            <stop stop-color="#00A1FF" offset="0.657445%"></stop>
            <stop stop-color="#00BEFF" offset="26.01%"></stop>
            <stop stop-color="#00D2FF" offset="51.22%"></stop>
            <stop stop-color="#00DFFF" offset="76.04%"></stop>
            <stop stop-color="#00E3FF" offset="100%"></stop>
        </linearGradient>
        <linearGradient x1="107.39803%" y1="49.4282353%" x2="-130.995074%" y2="49.4282353%" id="linearGradient-2">
            <stop stop-color="#FFE000" offset="0%"></stop>
            <stop stop-color="#FFBD00" offset="40.87%"></stop>
            <stop stop-color="#FFA500" offset="77.54%"></stop>
            <stop stop-color="#FF9C00" offset="100%"></stop>
        </linearGradient>
        <linearGradient x1="86.1886228%" y1="17.8150459%" x2="-50.0886228%" y2="194.392791%" id="linearGradient-3">
            <stop stop-color="#FF3A44" offset="0%"></stop>
            <stop stop-color="#C31162" offset="100%"></stop>
        </linearGradient>
        <linearGradient x1="-18.7796407%" y1="-54.5266535%" x2="42.0742515%" y2="24.6901019%" id="linearGradient-4">
            <stop stop-color="#32A071" offset="0%"></stop>
            <stop stop-color="#2DA771" offset="6.85%"></stop>
            <stop stop-color="#15CF74" offset="47.62%"></stop>
            <stop stop-color="#06E775" offset="80.09%"></stop>
            <stop stop-color="#00F076" offset="100%"></stop>
        </linearGradient>
    </defs>
    <g id="Welcome" stroke="none" stroke-width="1" fill="none" fill-rule="evenodd">
        <g id="Desktop" transform="translate(-119.000000, -428.000000)">
            <g id="Group-3" transform="translate(119.000000, 428.000000)">
                <g id="google-play-badge">
                    <g id="artwork">
                        <g id="Group">
                            <path d="M137.354129,43.2369076 L5.68797772,43.2369076 C2.73865594,43.2369076 0.421331683,40.8588777 0.421331683,37.8322941 L0.421331683,5.40461345 C0.421331683,2.37802992 2.73865594,0 5.68797772,0 L137.354129,0 C140.30345,0 142.620775,2.37802992 142.620775,5.40461345 L142.620775,37.8322941 C142.620775,40.7507854 140.198118,43.2369076 137.354129,43.2369076 L137.354129,43.2369076 Z" id="Shape" fill="#000000"></path>
                            <path d="M137.354129,0.864738152 C139.776786,0.864738152 141.778111,2.91849126 141.778111,5.40461345 L141.778111,37.8322941 C141.778111,40.3184163 139.776786,42.3721694 137.354129,42.3721694 L5.68797772,42.3721694 C3.26532054,42.3721694 1.26399505,40.3184163 1.26399505,37.8322941 L1.26399505,5.40461345 C1.26399505,2.91849126 3.26532054,0.864738152 5.68797772,0.864738152 L137.354129,0.864738152 L137.354129,0.864738152 Z M137.354129,0 L5.68797772,0 C2.73865594,0 0.421331683,2.37802992 0.421331683,5.40461345 L0.421331683,37.8322941 C0.421331683,40.8588777 2.73865594,43.2369076 5.68797772,43.2369076 L137.354129,43.2369076 C140.30345,43.2369076 142.620775,40.8588777 142.620775,37.8322941 L142.620775,5.40461345 C142.620775,2.48612219 140.198118,0 137.354129,0 L137.354129,0 L137.354129,0 Z" id="Shape" fill="#A6A6A6"></path>
                            <g transform="translate(43.186498, 6.485536)" id="Shape" stroke="#FFFFFF" stroke-width="0.2" fill="#FFFFFF">
                                <path d="M7.16263861,4.5398753 C7.16263861,5.40461345 6.95197277,6.16125933 6.42530817,6.70172068 C5.79331064,7.35027429 5.0559802,7.6745511 4.10798391,7.6745511 C3.15998762,7.6745511 2.42265718,7.35027429 1.79065965,6.70172068 C1.15866213,6.05316706 0.842663366,5.29652118 0.842663366,4.32369076 C0.842663366,3.35086034 1.15866213,2.59421446 1.79065965,1.94566084 C2.42265718,1.29710723 3.15998762,0.972830421 4.10798391,0.972830421 C4.52931559,0.972830421 4.95064728,1.08092269 5.37197896,1.29710723 C5.79331064,1.51329177 6.10930941,1.7294763 6.31997525,2.05375311 L5.79331064,2.59421446 C5.37197896,2.05375311 4.84531436,1.83756857 4.10798391,1.83756857 C3.47598639,1.83756857 2.84398886,2.05375311 2.42265718,2.59421446 C1.89599257,3.02658353 1.68532673,3.67513714 1.68532673,4.43178303 C1.68532673,5.18842891 1.89599257,5.83698252 2.42265718,6.2693516 C2.94932178,6.70172068 3.47598639,7.02599748 4.10798391,7.02599748 C4.84531436,7.02599748 5.37197896,6.80981294 5.89864356,6.2693516 C6.21464233,5.94507479 6.42530817,5.51270572 6.42530817,4.97224437 L4.10798391,4.97224437 L4.10798391,4.21559849 L7.16263861,4.21559849 C7.16263861,4.21559849 7.16263861,4.43178303 7.16263861,4.5398753 L7.16263861,4.5398753 Z"></path>
                                <polygon points="12.007953 1.83756857 9.16396411 1.83756857 9.16396411 3.89132168 11.7972871 3.89132168 11.7972871 4.64796757 9.16396411 4.64796757 9.16396411 6.70172068 12.007953 6.70172068 12.007953 7.56645883 8.32130074 7.56645883 8.32130074 1.08092269 12.007953 1.08092269"></polygon>
                                <polygon points="15.3786064 7.56645883 14.5359431 7.56645883 14.5359431 1.83756857 12.7452834 1.83756857 12.7452834 1.08092269 17.0639332 1.08092269 17.0639332 1.83756857 15.2732735 1.83756857 15.2732735 7.56645883"></polygon>
                                <polygon points="20.3292537 7.56645883 20.3292537 1.08092269 21.1719171 1.08092269 21.1719171 7.56645883"></polygon>
                                <polygon points="24.7532364 7.56645883 23.910573 7.56645883 23.910573 1.83756857 22.1199134 1.83756857 22.1199134 1.08092269 26.4385631 1.08092269 26.4385631 1.83756857 24.6479035 1.83756857 24.6479035 7.56645883"></polygon>
                                <path d="M34.7598639,6.70172068 C34.1278663,7.35027429 33.3905359,7.6745511 32.4425396,7.6745511 C31.4945433,7.6745511 30.7572129,7.35027429 30.1252153,6.70172068 C29.4932178,6.05316706 29.1772191,5.29652118 29.1772191,4.32369076 C29.1772191,3.35086034 29.4932178,2.59421446 30.1252153,1.94566084 C30.7572129,1.29710723 31.4945433,0.972830421 32.4425396,0.972830421 C33.3905359,0.972830421 34.1278663,1.29710723 34.7598639,1.94566084 C35.3918614,2.59421446 35.7078601,3.35086034 35.7078601,4.32369076 C35.7078601,5.29652118 35.3918614,6.05316706 34.7598639,6.70172068 L34.7598639,6.70172068 Z M30.6518799,6.16125933 C31.0732116,6.59362841 31.7052092,6.91790521 32.3372067,6.91790521 C32.9692042,6.91790521 33.6012017,6.70172068 34.0225334,6.16125933 C34.4438651,5.72889025 34.7598639,5.08033664 34.7598639,4.32369076 C34.7598639,3.56704488 34.549198,2.91849126 34.0225334,2.48612219 C33.6012017,2.05375311 32.9692042,1.7294763 32.3372067,1.7294763 C31.7052092,1.7294763 31.0732116,1.94566084 30.6518799,2.48612219 C30.2305483,2.91849126 29.9145495,3.56704488 29.9145495,4.32369076 C29.9145495,5.08033664 30.2305483,5.72889025 30.6518799,6.16125933 L30.6518799,6.16125933 Z"></path>
                                <polygon points="36.7611894 7.56645883 36.7611894 1.08092269 37.7091856 1.08092269 40.7638403 6.16125933 40.7638403 6.16125933 40.7638403 4.8641521 40.7638403 1.08092269 41.6065037 1.08092269 41.6065037 7.56645883 40.7638403 7.56645883 37.4985198 2.26993765 37.4985198 2.26993765 37.4985198 3.56704488 37.4985198 7.56645883"></polygon>
                            </g>
                            <path d="M72.1530507,23.5641146 C69.6250606,23.5641146 67.6237351,25.5097755 67.6237351,28.2120822 C67.6237351,30.8062967 69.6250606,32.8600498 72.1530507,32.8600498 C74.6810408,32.8600498 76.6823663,30.9143889 76.6823663,28.2120822 C76.6823663,25.4016832 74.6810408,23.5641146 72.1530507,23.5641146 L72.1530507,23.5641146 Z M72.1530507,30.9143889 C70.7837228,30.9143889 69.6250606,29.725374 69.6250606,28.1039899 C69.6250606,26.4826059 70.7837228,25.2935909 72.1530507,25.2935909 C73.5223787,25.2935909 74.6810408,26.3745136 74.6810408,28.1039899 C74.6810408,29.725374 73.5223787,30.9143889 72.1530507,30.9143889 L72.1530507,30.9143889 Z M62.3570891,23.5641146 C59.829099,23.5641146 57.8277735,25.5097755 57.8277735,28.2120822 C57.8277735,30.8062967 59.829099,32.8600498 62.3570891,32.8600498 C64.8850792,32.8600498 66.8864047,30.9143889 66.8864047,28.2120822 C66.8864047,25.4016832 64.7797463,23.5641146 62.3570891,23.5641146 L62.3570891,23.5641146 Z M62.3570891,30.9143889 C60.9877611,30.9143889 59.829099,29.725374 59.829099,28.1039899 C59.829099,26.4826059 60.9877611,25.2935909 62.3570891,25.2935909 C63.7264171,25.2935909 64.8850792,26.3745136 64.8850792,28.1039899 C64.8850792,29.725374 63.7264171,30.9143889 62.3570891,30.9143889 L62.3570891,30.9143889 Z M50.6651349,24.9693141 L50.6651349,26.914975 L55.1944505,26.914975 C55.0891176,27.9958977 54.6677859,28.8606358 54.1411213,29.4010972 C53.5091238,30.0496508 52.4557945,30.8062967 50.6651349,30.8062967 C47.821146,30.8062967 45.7144876,28.536359 45.7144876,25.6178677 C45.7144876,22.6993765 47.926479,20.4294388 50.6651349,20.4294388 C52.1397958,20.4294388 53.2984579,21.0779924 54.1411213,21.8346383 L55.5104493,20.4294388 C54.3517871,19.3485161 52.8771262,18.483778 50.7704678,18.483778 C46.9784827,18.483778 43.7131621,21.7265461 43.7131621,25.6178677 C43.7131621,29.5091894 46.9784827,32.7519575 50.7704678,32.7519575 C52.8771262,32.7519575 54.3517871,32.1034039 55.6157822,30.6982044 C56.8797772,29.4010972 57.3011089,27.5635286 57.3011089,26.1583291 C57.3011089,25.72596 57.3011089,25.2935909 57.195776,24.9693141 L50.6651349,24.9693141 L50.6651349,24.9693141 Z M98.380948,26.4826059 C97.9596163,25.4016832 96.9062871,23.5641146 94.5889629,23.5641146 C92.2716386,23.5641146 90.375646,25.4016832 90.375646,28.2120822 C90.375646,30.8062967 92.2716386,32.8600498 94.7996287,32.8600498 C96.8009542,32.8600498 98.0649492,31.5629425 98.4862809,30.8062967 L97.01162,29.725374 C96.4849554,30.4820198 95.8529579,31.0224812 94.7996287,31.0224812 C93.7462995,31.0224812 93.114302,30.5901121 92.5876374,29.6172817 L98.5916138,27.0230672 L98.380948,26.4826059 L98.380948,26.4826059 Z M92.2716386,27.9958977 C92.2716386,26.2664214 93.6409666,25.2935909 94.5889629,25.2935909 C95.3262933,25.2935909 96.0636238,25.72596 96.2742896,26.2664214 L92.2716386,27.9958977 L92.2716386,27.9958977 Z M87.4263242,32.4276807 L89.4276497,32.4276807 L89.4276497,18.9161471 L87.4263242,18.9161471 L87.4263242,32.4276807 L87.4263242,32.4276807 Z M84.1610037,24.5369451 L84.1610037,24.5369451 C83.6343391,23.9964837 82.7916757,23.4560224 81.7383465,23.4560224 C79.5263552,23.4560224 77.4196968,25.5097755 77.4196968,28.1039899 C77.4196968,30.6982044 79.4210223,32.6438652 81.7383465,32.6438652 C82.7916757,32.6438652 83.6343391,32.1034039 84.0556708,31.5629425 L84.1610037,31.5629425 L84.1610037,32.2114962 C84.1610037,33.9409725 83.2130074,34.9138029 81.7383465,34.9138029 C80.5796844,34.9138029 79.737021,34.0490647 79.5263552,33.2924188 L77.8410285,34.0490647 C78.3676931,35.2380797 79.6316881,36.7513714 81.8436794,36.7513714 C84.1610037,36.7513714 86.0569963,35.346172 86.0569963,31.9953116 L86.0569963,23.7802992 L84.1610037,23.7802992 L84.1610037,24.5369451 L84.1610037,24.5369451 Z M81.9490124,30.9143889 C80.5796844,30.9143889 79.4210223,29.725374 79.4210223,28.1039899 C79.4210223,26.4826059 80.5796844,25.2935909 81.9490124,25.2935909 C83.3183403,25.2935909 84.3716695,26.4826059 84.3716695,28.1039899 C84.3716695,29.725374 83.3183403,30.9143889 81.9490124,30.9143889 L81.9490124,30.9143889 Z M107.650245,18.9161471 L102.910264,18.9161471 L102.910264,32.4276807 L104.911589,32.4276807 L104.911589,27.347344 L107.650245,27.347344 C109.862236,27.347344 111.968895,25.72596 111.968895,23.1317456 C111.968895,20.5375311 109.756903,18.9161471 107.650245,18.9161471 L107.650245,18.9161471 Z M107.650245,25.4016832 L104.806256,25.4016832 L104.806256,20.7537156 L107.650245,20.7537156 C109.124906,20.7537156 109.967569,22.0508229 109.967569,23.0236533 C109.967569,24.2126682 109.124906,25.4016832 107.650245,25.4016832 L107.650245,25.4016832 Z M119.868864,23.4560224 C118.394203,23.4560224 116.919542,24.104576 116.392877,25.5097755 L118.183537,26.2664214 C118.604869,25.5097755 119.236866,25.2935909 119.974197,25.2935909 C121.027526,25.2935909 121.975522,25.9421446 122.080855,27.0230672 L122.080855,27.1311595 C121.764856,26.914975 120.922193,26.5906982 120.07953,26.5906982 C118.183537,26.5906982 116.287545,27.6716209 116.287545,29.6172817 C116.287545,31.4548503 117.867538,32.6438652 119.552865,32.6438652 C120.922193,32.6438652 121.554191,31.9953116 122.080855,31.346758 L122.186188,31.346758 L122.186188,32.4276807 L124.082181,32.4276807 L124.082181,27.2392518 C123.766182,24.8612219 122.080855,23.4560224 119.868864,23.4560224 L119.868864,23.4560224 Z M119.552865,30.9143889 C118.920868,30.9143889 117.972871,30.5901121 117.972871,29.725374 C117.972871,28.6444513 119.131533,28.3201745 120.07953,28.3201745 C120.922193,28.3201745 121.343525,28.536359 121.870189,28.7525435 C121.764856,30.0496508 120.711527,30.9143889 119.552865,30.9143889 L119.552865,30.9143889 Z M130.718155,23.7802992 L128.506163,29.6172817 L128.40083,29.6172817 L126.083506,23.7802992 L123.976848,23.7802992 L127.452834,31.9953116 L125.451509,36.5351869 L127.452834,36.5351869 L132.824813,23.7802992 L130.718155,23.7802992 L130.718155,23.7802992 Z M113.022224,32.4276807 L115.023549,32.4276807 L115.023549,18.9161471 L113.022224,18.9161471 L113.022224,32.4276807 L113.022224,32.4276807 Z" id="Shape" fill="#FFFFFF"></path>
                            <g transform="translate(10.533292, 7.566459)" id="Shape">
                                <path d="M0.842663366,0.540461345 C0.526664604,0.864738152 0.315998762,1.4051995 0.315998762,2.05375311 L0.315998762,25.9421446 C0.315998762,26.5906982 0.526664604,27.1311595 0.842663366,27.4554363 L0.947996287,27.5635286 L14.0092785,14.1600872 L14.0092785,14.051995 L14.0092785,13.9439027 L0.842663366,0.540461345 L0.842663366,0.540461345 L0.842663366,0.540461345 Z" fill="url(#linearGradient-1)"></path>
                                <path d="M18.3279282,18.6999625 L14.0092785,14.2681795 L14.0092785,14.051995 L14.0092785,13.9439027 L18.3279282,9.51211967 L18.4332611,9.62021194 L23.5945743,12.6467955 C25.0692351,13.5115336 25.0692351,14.9167331 23.5945743,15.7814713 L18.3279282,18.6999625 L18.3279282,18.6999625 L18.3279282,18.6999625 Z" fill="url(#linearGradient-2)"></path>
                                <path d="M18.4332611,18.5918703 L14.0092785,14.051995 L0.842663366,27.5635286 C1.36932797,28.1039899 2.10665842,28.1039899 3.0546547,27.6716209 L18.4332611,18.5918703" fill="url(#linearGradient-3)"></path>
                                <path d="M18.4332611,9.51211967 L3.0546547,0.540461345 C2.10665842,-1.67921232e-14 1.36932797,0.108092269 0.842663366,0.648553614 L14.0092785,14.051995 L18.4332611,9.51211967 L18.4332611,9.51211967 Z" fill="url(#linearGradient-4)"></path>
                                <g transform="translate(0.000000, 18.375686)" fill="#000000">
                                    <path d="M18.3279282,0.108092269 L3.0546547,8.97165832 C2.21199134,9.51211967 1.47466089,9.4040274 0.947996287,8.97165832 L0.947996287,8.97165832 L0.842663366,9.07975059 L0.842663366,9.07975059 L0.947996287,9.18784286 L0.947996287,9.18784286 C1.47466089,9.62021194 2.21199134,9.72830421 3.0546547,9.18784286 L18.3279282,0.108092269 L18.3279282,0.108092269 L18.3279282,0.108092269 Z" opacity="0.2"></path>
                                    <path d="M0.842663366,8.97165832 C0.526664604,8.64738152 0.315998762,8.10692017 0.315998762,7.45836656 L0.315998762,7.56645883 C0.315998762,8.21501244 0.526664604,8.75547379 0.842663366,9.07975059 L0.842663366,8.97165832 L0.842663366,8.97165832 L0.842663366,8.97165832 Z" opacity="0.12"></path>
                                </g>
                                <path d="M23.5945743,15.4571945 L18.3279282,18.483778 L18.4332611,18.5918703 L23.5945743,15.5652867 C24.3319047,15.1329177 24.6479035,14.5924563 24.6479035,14.051995 L24.6479035,14.051995 C24.6479035,14.5924563 24.2265718,15.0248254 23.5945743,15.4571945 L23.5945743,15.4571945 Z" fill="#000000" opacity="0.12"></path>
                                <path d="M3.0546547,0.648553614 L23.5945743,12.6467955 C24.2265718,13.0791645 24.6479035,13.5115336 24.6479035,14.051995 L24.6479035,14.051995 C24.6479035,13.5115336 24.3319047,12.9710723 23.5945743,12.5387032 L3.0546547,0.540461345 C1.57999381,-0.324276807 0.421331683,0.432369076 0.421331683,2.16184538 L0.421331683,2.26993765 C0.315998762,0.540461345 1.57999381,-0.216184538 3.0546547,0.648553614 L3.0546547,0.648553614 Z" fill="#FFFFFF" opacity="0.25"></path>
                            </g>
                        </g>
                    </g>
                </g>
            </g>
        </g>
    </g>
</svg>