<?xml version="1.0" encoding="UTF-8" standalone="no"?>
<svg width="33px" height="44px" viewBox="0 0 33 44" version="1.1" xmlns="http://www.w3.org/2000/svg" xmlns:xlink="http://www.w3.org/1999/xlink">
    <!-- Generator: Sketch 39.1 (31720) - http://www.bohemiancoding.com/sketch -->
    <title>noun_16150_cc</title>
    <desc>Created with Sketch.</desc>
    <defs></defs>
    <g id="Welcome" stroke="none" stroke-width="1" fill="none" fill-rule="evenodd">
        <g id="Desktop" transform="translate(-663.000000, -1585.000000)" fill="#FFC12D">
            <g id="Group-24" transform="translate(96.000000, 1546.000000)">
                <g id="Group-7" transform="translate(562.000000, 34.000000)">
                    <g id="noun_16150_cc" transform="translate(5.000000, 5.000000)">
                        <g id="Layer_1">
                            <path d="M16.4388889,43.5722222 C15.7055556,43.5722222 15.0944444,42.9611111 15.0944444,42.2277778 L15.0944444,28.5388889 C15.0944444,27.8055556 15.7055556,27.1944444 16.4388889,27.1944444 C17.1722222,27.1944444 17.7833333,27.8055556 17.7833333,28.5388889 L17.7833333,42.2277778 C17.8444444,42.9611111 17.2333333,43.5722222 16.4388889,43.5722222 L16.4388889,43.5722222 Z" id="Shape"></path>
                            <path d="M24.9944444,22.3666667 C24.2611111,22.3666667 23.65,21.7555556 23.65,21.0222222 L23.65,18.8833333 C23.5888889,13.5666667 23.5888889,11.9777778 26.5833333,6.35555556 C27.0111111,5.5 26.8277778,5.19444444 26.7666667,5.07222222 C26.3388889,4.27777778 24.2611111,3.42222222 19.8,3.23888889 L12.9555556,3.23888889 C8.61666667,3.42222222 6.6,4.33888889 6.17222222,5.07222222 C6.11111111,5.19444444 5.92777778,5.5 6.35555556,6.35555556 C9.35,11.9777778 9.35,13.5666667 9.28888889,18.8833333 L9.28888889,21.0222222 C9.28888889,21.7555556 8.67777778,22.3666667 7.94444444,22.3666667 C7.21111111,22.3666667 6.6,21.7555556 6.6,21.0222222 L6.6,18.8222222 C6.66111111,13.6888889 6.66111111,12.65 3.97222222,7.63888889 C2.99444444,5.80555556 3.36111111,4.52222222 3.78888889,3.66666667 C4.88888889,1.71111111 7.88333333,0.672222222 12.8944444,0.427777778 L19.8611111,0.427777778 C25.0555556,0.672222222 28.05,1.71111111 29.2111111,3.66666667 C29.7,4.46111111 30.0055556,5.80555556 29.0277778,7.63888889 C26.3388889,12.65 26.3388889,13.6888889 26.4,18.8222222 L26.4,21.0222222 C26.4,21.7555556 25.7888889,22.3666667 24.9944444,22.3666667 L24.9944444,22.3666667 Z" id="Shape"></path>
                            <path d="M30.3722222,18.5166667 L24.9944444,18.5166667 C24.2611111,18.5166667 23.65,17.9055556 23.65,17.1722222 C23.65,16.4388889 24.2611111,15.8277778 24.9944444,15.8277778 L29.2111111,15.8277778 L29.2722222,15.1555556 C29.3944444,14.4222222 30.0666667,13.8722222 30.8,13.9944444 C31.5333333,14.1166667 32.0833333,14.7888889 31.9611111,15.5222222 L31.7166667,17.3555556 C31.6555556,18.0277778 31.1055556,18.5166667 30.3722222,18.5166667 L30.3722222,18.5166667 Z" id="Shape"></path>
                            <path d="M7.94444444,18.5166667 L2.56666667,18.5166667 C1.89444444,18.5166667 1.28333333,18.0277778 1.22222222,17.3555556 L0.977777778,15.5222222 C0.855555556,14.7888889 1.40555556,14.0555556 2.13888889,13.9944444 C2.93333333,13.8722222 3.60555556,14.4222222 3.66666667,15.1555556 L3.72777778,15.8277778 L7.94444444,15.8277778 C8.67777778,15.8277778 9.28888889,16.4388889 9.28888889,17.1722222 C9.28888889,17.9055556 8.73888889,18.5166667 7.94444444,18.5166667 L7.94444444,18.5166667 Z" id="Shape"></path>
                            <path d="M31.2277778,41.4944444 C31.0444444,41.4944444 30.8611111,41.4333333 30.6777778,41.3722222 L16.4388889,35.5055556 L2.26111111,41.3722222 C1.58888889,41.6777778 0.733333333,41.3111111 0.488888889,40.6388889 C0.183333333,39.9666667 0.55,39.1111111 1.22222222,38.8666667 L15.95,32.7555556 C16.2555556,32.6333333 16.6833333,32.6333333 16.9888889,32.7555556 L31.7777778,38.8666667 C32.45,39.1722222 32.8166667,39.9666667 32.5111111,40.6388889 C32.3277778,41.1888889 31.7777778,41.4944444 31.2277778,41.4944444 L31.2277778,41.4944444 Z" id="Shape"></path>
                            <path d="M16.6222222,29.8833333 L16.4388889,29.8833333 C5.68333333,29.8833333 2.68888889,24.4444444 2.56666667,24.2 C2.2,23.5277778 2.44444444,22.6722222 3.11666667,22.3666667 C3.78888889,22 4.58333333,22.2444444 4.95,22.9166667 C5.07222222,23.1 7.45555556,27.1333333 16.4388889,27.1333333 C16.5611111,27.1333333 24.5055556,27.2555556 28.1722222,22.7333333 C28.6611111,22.1222222 29.5166667,22.0611111 30.1277778,22.55 C30.7388889,23.0388889 30.8,23.8944444 30.3111111,24.5055556 C26.0944444,29.7 17.9666667,29.8833333 16.6222222,29.8833333 L16.6222222,29.8833333 Z" id="Shape"></path>
                        </g>
                    </g>
                </g>
            </g>
        </g>
    </g>
</svg>