<?xml version="1.0" encoding="UTF-8" standalone="no"?>
<svg width="36px" height="44px" viewBox="0 0 36 44" version="1.1" xmlns="http://www.w3.org/2000/svg" xmlns:xlink="http://www.w3.org/1999/xlink">
    <!-- Generator: Sketch 39.1 (31720) - http://www.bohemiancoding.com/sketch -->
    <title>Group 22</title>
    <desc>Created with Sketch.</desc>
    <defs></defs>
    <g id="Welcome" stroke="none" stroke-width="1" fill="none" fill-rule="evenodd">
        <g id="Desktop" transform="translate(-286.000000, -1577.000000)" fill="#FFC12D">
            <g id="Group-24" transform="translate(96.000000, 1546.000000)">
                <g id="Group-23" transform="translate(0.000000, 30.000000)">
                    <g id="Group-22" transform="translate(190.000000, 1.000000)">
                        <path d="M9.65482352,30.8148989 C9.65482352,28.3346096 10.7275817,25.8543203 12.9362014,23.9671436 C13.5672357,23.4279503 13.5672357,22.5652409 12.9362014,21.9721283 C12.3051672,21.4329349 11.2955125,21.4329349 10.6013748,21.9721283 C7.76172087,24.3984983 6.31034217,27.5797389 6.31034217,30.8148989 C6.31034217,33.9961396 7.69861744,37.2312996 10.6013748,39.6576696 C11.2324091,40.1968629 12.2420638,40.1968629 12.9362014,39.6576696 C13.6303391,39.1184762 13.5672357,38.2018476 12.9362014,37.6626542 C10.7275817,35.7754776 9.65482352,33.2951882 9.65482352,30.8148989" id="Fill-1"></path>
                        <path d="M3.28137793,30.8353591 C3.28137793,27.0070864 4.98517031,23.1248945 8.4558585,20.2132505 C9.08689272,19.6740571 9.08689272,18.8113478 8.4558585,18.2182351 C7.82482429,17.6251225 6.81516954,17.6790418 6.1210319,18.2182351 C2.01930949,21.7229918 0,26.2522158 0,30.8353591 C0,35.4185024 2.01930949,39.9477264 6.1210319,43.4524831 C6.75206612,43.9916764 7.76172087,43.9916764 8.4558585,43.4524831 C9.08689272,42.8593704 9.08689272,41.9966611 8.4558585,41.4574677 C4.98517031,38.4919044 3.28137793,34.6636318 3.28137793,30.8353591" id="Fill-3"></path>
                        <path d="M24.2317139,33.4299866 C23.348266,34.1848572 22.149301,34.6162119 20.8241292,34.6162119 C19.4358539,34.6162119 18.2999923,34.1309379 17.4165444,33.4299866 C16.5330965,32.6751159 16.0282691,31.6506486 16.0282691,30.5183426 C16.0282691,29.3321172 16.5961999,28.3615693 17.4165444,27.6066986 C18.2999923,26.8518279 19.4989573,26.4204733 20.8241292,26.4204733 C21.8337839,26.4204733 22.7803352,26.6900699 23.5375763,27.1753439 C24.3579208,27.6066986 24.9258516,28.2537306 25.3044721,29.0086012 C25.4584444,29.3051576 25.5600409,29.6227425 25.6199892,29.9473368 L25.6199892,30.5183426 C25.6199892,31.7045679 25.0520584,32.6751159 24.2317139,33.4299866 M33.3186066,6.09288465 C32.6503414,5.4981544 31.8912072,5.01557637 31.0620283,4.6494641 C30.4492941,4.32864407 29.9406805,3.88380957 29.5955048,3.34299866 C29.2168842,2.74988599 28.9644705,2.15677333 28.9644705,1.40190266 C28.9644705,0.647031998 28.2072295,0 27.3237816,0 C27.313054,0 27.3029575,0.00269596666 27.2922299,0.00269596666 C27.2815023,0.00269596666 27.2714057,0 27.2606782,0 C26.3772303,0 25.6199892,0.647031998 25.6199892,1.40190266 L25.6199892,24.9646513 L25.6199892,24.9678864 C25.5127134,24.8961737 25.4161651,24.8174515 25.3044721,24.7489739 C23.9793002,24.0480226 22.4648181,23.5627486 20.7610257,23.5627486 C18.552406,23.5627486 16.4699931,24.3176193 15.0186144,25.6116833 C13.5672357,26.8518279 12.6206843,28.6311659 12.6206843,30.5183426 C12.6206843,32.4055192 13.5041322,34.1309379 15.0186144,35.4250019 C16.4699931,36.6651466 18.552406,37.4739366 20.7610257,37.4739366 C22.9696455,37.4739366 25.0520584,36.7190659 26.5034371,35.4250019 C27.9548158,34.1848572 28.9013671,32.4055192 28.9013671,30.5183426 L28.9013671,6.90059626 C29.710984,7.12328311 30.4328872,7.50934553 31.0468835,8.03398064 C31.9303314,8.78885131 32.4351587,9.86723797 32.4351587,11.1073826 C32.4351587,11.8622533 33.1923998,12.5092853 34.0758477,12.5092853 C34.9592956,12.5092853 35.7165367,11.8622533 35.7165367,11.1073826 C35.7165367,9.16628664 34.8330888,7.44086798 33.3186066,6.09288465" id="Fill-5"></path>
                    </g>
                </g>
            </g>
        </g>
    </g>
</svg>