<?xml version="1.0" encoding="UTF-8" standalone="no"?>
<svg width="36px" height="36px" viewBox="0 0 36 36" version="1.1" xmlns="http://www.w3.org/2000/svg" xmlns:xlink="http://www.w3.org/1999/xlink">
    <!-- Generator: Sketch 39.1 (31720) - http://www.bohemiancoding.com/sketch -->
    <title>Page 1</title>
    <desc>Created with Sketch.</desc>
    <defs></defs>
    <g id="Welcome" stroke="none" stroke-width="1" fill="none" fill-rule="evenodd">
        <g id="Desktop" transform="translate(-286.000000, -1814.000000)" fill="#FFC12D">
            <g id="Group-24" transform="translate(96.000000, 1546.000000)">
                <g id="Group-23" transform="translate(0.000000, 30.000000)">
                    <path d="M208,258.117647 C210.924471,258.117647 213.542941,258.773059 215.345588,259.788471 C217.148235,260.803882 218.058824,262.066529 218.058824,263.411765 L218.058824,268.292412 C215.321235,270.533941 211.821824,271.882353 208,271.882353 C204.178176,271.882353 200.678765,270.533941 197.941176,268.292412 L197.941176,263.411765 C197.941176,262.066529 198.851765,260.804412 200.654412,259.788471 C202.457059,258.773059 205.075529,258.117647 208,258.117647 L208,258.117647 Z M208,244.352941 C210.351647,244.352941 212.235294,246.236588 212.235294,248.588235 C212.235294,250.939882 210.351647,252.823529 208,252.823529 C205.648353,252.823529 203.764706,250.939882 203.764706,248.588235 C203.764706,246.236588 205.648353,244.352941 208,244.352941 L208,244.352941 Z M208,242.235294 C204.503765,242.235294 201.647059,245.092 201.647059,248.588235 C201.647059,252.084471 204.503765,254.941176 208,254.941176 C211.496235,254.941176 214.352941,252.084471 214.352941,248.588235 C214.352941,245.092 211.496235,242.235294 208,242.235294 L208,242.235294 Z M208,240.117647 C216.784,240.117647 223.882353,247.216 223.882353,256 C223.882353,259.889588 222.49,263.449353 220.176471,266.207588 L220.176471,263.411765 C220.176471,261.107235 218.604118,259.184412 216.388,257.935529 C214.171353,256.687176 211.234706,256 208,256 C204.765294,256 201.828647,256.687176 199.612,257.935529 C197.395882,259.184412 195.823529,261.107235 195.823529,263.411765 L195.823529,266.207588 C193.51,263.449353 192.117647,259.889588 192.117647,256 C192.117647,247.216 199.216,240.117647 208,240.117647 L208,240.117647 Z M208,238 C198.071412,238 190,246.071412 190,256 C190,265.928588 198.071412,274 208,274 C217.928588,274 226,265.928588 226,256 C226,246.071412 217.928588,238 208,238 L208,238 Z" id="Page-1"></path>
                </g>
            </g>
        </g>
    </g>
</svg>