<?xml version="1.0" encoding="UTF-8" standalone="no"?>
<svg width="42px" height="37px" viewBox="0 0 42 37" version="1.1" xmlns="http://www.w3.org/2000/svg" xmlns:xlink="http://www.w3.org/1999/xlink">
    <!-- Generator: Sketch 39.1 (31720) - http://www.bohemiancoding.com/sketch -->
    <title>Page 1</title>
    <desc>Created with Sketch.</desc>
    <defs></defs>
    <g id="Welcome" stroke="none" stroke-width="1" fill="none" fill-rule="evenodd">
        <g id="Desktop" transform="translate(-658.000000, -1808.000000)" fill="#FFC12D">
            <g id="Group-24" transform="translate(96.000000, 1546.000000)">
                <g id="Group-7" transform="translate(562.000000, 34.000000)">
                    <path d="M6.03761174,261.605829 C5.66142435,261.982016 5.14735056,262.21395 4.57670171,262.21395 C3.99993002,262.21395 3.49197908,261.982016 3.11579168,261.605829 C2.73960429,261.229642 2.50767105,260.715568 2.50767105,260.144919 C2.50767105,259.568147 2.73960429,259.060196 3.11579168,258.684009 C3.49197908,258.307821 4.00605287,258.075888 4.57670171,258.075888 C5.1534734,258.075888 5.66142435,258.307821 6.03761174,258.684009 C6.41379914,259.060196 6.64573238,259.57427 6.64573238,260.144919 C6.64573238,260.715323 6.41379914,261.223274 6.03761174,261.605829 L6.03761174,261.605829 Z M6.03761174,234.050102 C5.66142435,234.42629 5.14735056,234.658223 4.57670171,234.658223 C3.99993002,234.658223 3.49197908,234.42629 3.11579168,234.050102 C2.73960429,233.673915 2.50767105,233.159841 2.50767105,232.589192 C2.50767105,232.012421 2.73960429,231.50447 3.11579168,231.128282 C3.49197908,230.752095 4.00605287,230.520162 4.57670171,230.520162 C5.1534734,230.520162 5.66142435,230.752095 6.03761174,231.128282 C6.41379914,231.50447 6.64573238,232.018543 6.64573238,232.589192 C6.64573238,233.159596 6.41379914,233.673915 6.03761174,234.050102 L6.03761174,234.050102 Z M33.6371779,242.508196 C34.8661547,243.56157 36.082396,244.608575 36.3584137,244.840509 L27.0791246,244.840509 C25.7122614,244.790301 24.7845285,244.432972 24.0884838,243.956615 C23.5680423,243.592918 23.1668737,243.154033 22.8533842,242.658818 C22.3831499,241.925301 22.1135,241.072512 21.9694908,240.363977 C21.8316044,239.655441 21.8191138,239.09116 21.8191138,238.947151 L21.8191138,238.840614 C21.7689065,237.166629 21.4368035,235.805888 20.8975036,234.721411 C20.0949215,233.085142 18.8159824,232.125571 17.6621941,231.642846 C16.5022829,231.153753 15.4677676,231.091055 14.9096094,231.084933 C14.7528646,231.084933 14.6338366,231.091055 14.5647709,231.097423 L8.90310166,231.097423 C8.28861326,229.298042 6.58327939,228 4.57694663,228 C2.05017231,228 0,230.050172 0,232.576947 C0,235.103721 2.05017231,237.153893 4.57694663,237.153893 C6.75251474,237.153893 8.56438605,235.636653 9.0346203,233.605094 L14.6774312,233.605094 L14.7340063,233.598971 L14.7401291,233.598971 C14.7653552,233.598971 14.8216854,233.592849 14.9221,233.592849 C15.1415426,233.592849 15.5427112,233.611707 15.9940871,233.718244 C16.3325578,233.799801 16.7026223,233.925196 17.0535836,234.119413 C17.5865158,234.414044 18.1005895,234.846562 18.5206165,235.573955 C18.9406434,236.301349 19.2666235,237.341987 19.3168308,238.890821 L19.3168308,238.941028 C19.3229537,239.411263 19.3543026,241.298567 20.32612,243.267183 C20.8152126,244.245124 21.5612197,245.24829 22.6711684,246.0134 C22.683659,246.019523 22.6961496,246.025891 22.7025174,246.032259 C22.683659,246.044749 22.6711684,246.051117 22.6523101,246.063608 C21.849728,246.602907 21.2291167,247.279849 20.7713731,247.982016 C20.0816962,249.041758 19.7243672,250.157584 19.5362735,251.104421 C19.3420569,252.051012 19.3168308,252.841104 19.3168308,253.26113 C19.3168308,253.374036 19.3168308,253.449224 19.3229537,253.505799 C19.2791141,254.872662 19.0094642,255.84448 18.6646257,256.55277 C18.1316936,257.612512 17.4231583,258.120218 16.7021325,258.433707 C15.9874744,258.741074 15.2600808,258.791036 14.927733,258.791036 C14.8525445,258.791036 14.8023372,258.791036 14.7709882,258.784913 L14.7457621,258.784913 L14.6891871,258.77879 L8.9648199,258.77879 C8.38804821,256.903976 6.65112048,255.543726 4.58845757,255.543726 C2.06168326,255.543726 0.0115109424,257.593898 0.0115109424,260.120672 C0.0115109424,262.647447 2.06168326,264.697619 4.58845757,264.697619 C6.71381838,264.697619 8.49458566,263.249445 9.00865945,261.286706 L14.5762819,261.286706 C14.6514704,261.292829 14.7643756,261.299197 14.9272431,261.299197 C15.2970628,261.299197 15.8802022,261.267848 16.5762469,261.10498 C17.0966884,260.979585 17.6734601,260.785368 18.2627224,260.459143 C19.1466158,259.976418 20.0432448,259.205185 20.7018176,258.057765 C21.3603905,256.910344 21.7801725,255.424453 21.8365026,253.543516 L21.8365026,253.430611 L21.8365026,253.255008 C21.8303798,252.728443 21.9241817,251.142137 22.6077358,249.831849 C22.9462065,249.173521 23.4103179,248.584014 24.0686458,248.132638 C24.7269737,247.693753 25.5983766,247.367773 26.8775607,247.317566 C26.927768,247.317566 26.9716075,247.323688 27.0218148,247.330056 L36.3699246,247.330056 C36.0877841,247.574725 34.8776656,248.615363 33.6486888,249.662369 C32.2504767,250.859752 33.6486888,253.24864 33.6486888,253.24864 L42,246.076098 L33.6361982,238.922415 C33.6361982,238.922415 32.2379861,241.311303 33.6361982,242.508686 L33.6371779,242.508196 Z" id="Page-1"></path>
                </g>
            </g>
        </g>
    </g>
</svg>