<?xml version="1.0" encoding="UTF-8" standalone="no"?>
<svg width="129px" height="93px" viewBox="0 0 129 93" version="1.1" xmlns="http://www.w3.org/2000/svg" xmlns:xlink="http://www.w3.org/1999/xlink">
    <!-- Generator: Sketch 39.1 (31720) - http://www.bohemiancoding.com/sketch -->
    <title>logo</title>
    <desc>Created with Sketch.</desc>
    <defs>
        <polygon id="path-1" points="0.312162097 13.8802119 11.3166944 13.8802119 11.3166944 0.104250306 0.312162097 0.104250306 0.312162097 13.8802119"></polygon>
        <polygon id="path-3" points="0.298374194 14.3759337 11.9223702 14.3759337 11.9223702 0.432913894 0.298374194 0.432913894"></polygon>
        <polygon id="path-5" points="0.27506371 14.3759337 12.4847976 14.3759337 12.4847976 0.432864322 0.27506371 0.432864322"></polygon>
    </defs>
    <g id="Welcome" stroke="none" stroke-width="1" fill="none" fill-rule="evenodd">
        <g id="Desktop" transform="translate(-120.000000, -80.000000)">
            <g id="logo" transform="translate(123.000000, 83.000000)">
                <path d="M8.52528871,76.2282894 L1.32879677,76.2282894 C0.629482258,76.2282894 0.0606072581,76.7968824 0.0606072581,77.4958502 L0.0606072581,78.4327645 C0.0606072581,79.1317323 0.629482258,79.7003253 1.32879677,79.7003253 L3.10634516,79.7003253 L3.10634516,88.5692849 C3.10634516,89.2563554 3.68761935,89.8368457 4.37503065,89.8368457 L5.47955081,89.8368457 C6.1669621,89.8368457 6.74774032,89.2563554 6.74774032,88.5692849 L6.74774032,79.7003253 L8.52528871,79.7003253 C9.22460323,79.7003253 9.79347823,79.1317323 9.79347823,78.4327645 L9.79347823,77.4958502 C9.79347823,76.7968824 9.22460323,76.2282894 8.52528871,76.2282894" id="Fill-1" fill="#F2F2F2"></path>
                <g id="Group-5" transform="translate(10.911290, 76.124039)">
                    <mask id="mask-2" fill="white">
                        <use xlink:href="#path-1"></use>
                    </mask>
                    <g id="Clip-4"></g>
                    <path d="M10.0485048,0.104250306 L8.92712177,0.104250306 C8.22780726,0.104250306 7.65893226,0.67284327 7.65893226,1.37181108 L7.65893226,8.3138999 C7.65893226,9.23346394 7.17139597,10.3076932 5.79756532,10.3076932 C4.44853306,10.3076932 3.96992419,9.21561795 3.96992419,8.28019082 L3.96992419,1.37181108 C3.96992419,0.67284327 3.40104919,0.104250306 2.70173468,0.104250306 L1.58035161,0.104250306 C0.892940323,0.104250306 0.312162097,0.684740595 0.312162097,1.37181108 L0.312162097,8.39718118 C0.312162097,11.5232032 2.67048871,13.8803606 5.79756532,13.8803606 C8.94398468,13.8803606 11.3166944,11.5232032 11.3166944,8.39718118 L11.3166944,1.37181108 C11.3166944,0.684740595 10.7359161,0.104250306 10.0485048,0.104250306" id="Fill-3" fill="#F2F2F2" mask="url(#mask-2)"></path>
                </g>
                <g id="Group-8" transform="translate(24.798387, 75.628317)">
                    <mask id="mask-4" fill="white">
                        <use xlink:href="#path-3"></use>
                    </mask>
                    <g id="Clip-7"></g>
                    <path d="M10.6541806,0.599972158 L9.58338629,0.599972158 C8.88357581,0.599972158 8.31470081,1.16856512 8.31470081,1.86753293 L8.31470081,7.24809792 L2.70381774,0.76108176 C2.52378145,0.552878582 2.26141452,0.432913894 1.98516048,0.432913894 L1.56705968,0.432913894 C0.867745161,0.432913894 0.298374194,0.994071031 0.298374194,1.68362013 L0.298374194,12.9409677 C0.298374194,13.6280382 0.879152419,14.2085285 1.56705968,14.2085285 L2.62099113,14.2085285 C3.32030565,14.2085285 3.88918065,13.6399355 3.88918065,12.9409677 L3.88918065,7.37995993 L9.49163226,14.0375044 C9.67216452,14.252152 9.93849919,14.3760824 10.2192169,14.3760824 L10.6541806,14.3760824 C11.3534952,14.3760824 11.9223702,13.8149253 11.9223702,13.1248805 L11.9223702,1.86753293 C11.9223702,1.18046245 11.3415919,0.599972158 10.6541806,0.599972158" id="Fill-6" fill="#F2F2F2" mask="url(#mask-4)"></path>
                </g>
                <path d="M47.7030206,76.2282894 L41.008944,76.2282894 C40.3096294,76.2282894 39.7407544,76.7968824 39.7407544,77.4958502 L39.7407544,88.5692849 C39.7407544,89.2682528 40.3096294,89.8368457 41.008944,89.8368457 L47.7030206,89.8368457 C48.4023351,89.8368457 48.9712101,89.2682528 48.9712101,88.5692849 L48.9712101,87.6492252 C48.9712101,86.9502574 48.4023351,86.3816644 47.7030206,86.3816644 L43.3647907,86.3816644 L43.3647907,84.6848085 L46.8831859,84.6848085 C47.5825004,84.6848085 48.1513754,84.1162155 48.1513754,83.4172477 L48.1513754,82.4808291 C48.1513754,81.7932629 47.5705972,81.2127726 46.8831859,81.2127726 L43.3647907,81.2127726 L43.3647907,79.7003253 L47.7030206,79.7003253 C48.4023351,79.7003253 48.9712101,79.1317323 48.9712101,78.4327645 L48.9712101,77.4958502 C48.9712101,76.7968824 48.4023351,76.2282894 47.7030206,76.2282894" id="Fill-9" fill="#F2F2F2"></path>
                <g id="Group-13" transform="translate(50.092742, 75.628317)">
                    <mask id="mask-6" fill="white">
                        <use xlink:href="#path-5"></use>
                    </mask>
                    <g id="Clip-12"></g>
                    <path d="M12.4679347,8.00650278 C12.4679347,7.30753497 11.9064992,6.73894201 11.2166081,6.73894201 L8.17037419,6.73894201 C7.45965242,6.73894201 6.90218468,7.29563765 6.90218468,8.00650278 L6.90218468,8.97663045 C6.90218468,9.67807687 7.45965242,10.2273367 8.17037419,10.2273367 L8.86026532,10.2273367 L8.86026532,10.5113853 C8.48729758,10.6377944 7.94966855,10.7701521 7.30044677,10.7701521 C5.50801935,10.7701521 4.04987419,9.25274752 4.04987419,7.38734619 C4.04987419,5.51302187 5.50801935,3.98818145 7.30044677,3.98818145 C8.04191855,3.98818145 8.87167258,4.32626375 9.52089435,4.89188238 C9.77929355,5.12437593 10.0743944,5.24731495 10.38735,5.24731495 C10.7221282,5.24731495 11.0380597,5.10157273 11.2800919,4.83586582 C11.4001161,4.70796958 11.5201403,4.58354339 11.6401645,4.45961293 C11.7666363,4.32923808 11.8931081,4.19886324 12.0190839,4.06402689 C12.508604,3.56037349 12.4971968,2.77465435 11.9888298,2.26653945 C11.970975,2.24869347 11.9526242,2.23183892 11.9337774,2.2154801 C10.5460597,1.03268776 8.97037016,0.432864322 7.25035403,0.432864322 C3.40412419,0.432864322 0.27506371,3.56780932 0.27506371,7.42105528 C0.27506371,11.2559595 3.40412419,14.3760329 7.25035403,14.3760329 C9.9246121,14.3760329 11.833096,13.1729159 11.9134427,13.1218566 C11.9327855,13.1094635 11.9521282,13.096079 11.970479,13.0821988 C12.277979,12.8516882 12.4847976,12.4387519 12.4847976,12.0545674 C12.4847976,11.38336 12.4803339,10.7042211 12.4763661,10.0245864 C12.4719024,9.34891756 12.4679347,8.6737444 12.4679347,8.00650278" id="Fill-11" fill="#F2F2F2" mask="url(#mask-6)"></path>
                </g>
                <path d="M72.9402895,76.2282894 L66.2462129,76.2282894 C65.5468984,76.2282894 64.9775274,76.7968824 64.9775274,77.4958502 L64.9775274,88.5692849 C64.9775274,89.2682528 65.5468984,89.8368457 66.2462129,89.8368457 L72.9402895,89.8368457 C73.639604,89.8368457 74.208479,89.2682528 74.208479,88.5692849 L74.208479,87.6492252 C74.208479,86.9502574 73.639604,86.3816644 72.9402895,86.3816644 L68.6020597,86.3816644 L68.6020597,84.6848085 L72.1199589,84.6848085 C72.8192734,84.6848085 73.3886444,84.1162155 73.3886444,83.4172477 L73.3886444,82.4808291 C73.3886444,81.7932629 72.8078661,81.2127726 72.1199589,81.2127726 L68.6020597,81.2127726 L68.6020597,79.7003253 L72.9402895,79.7003253 C73.639604,79.7003253 74.208479,79.1317323 74.208479,78.4327645 L74.208479,77.4958502 C74.208479,76.7968824 73.639604,76.2282894 72.9402895,76.2282894" id="Fill-14" fill="#F2F2F2"></path>
                <path d="M83.5336149,76.2282894 L76.337619,76.2282894 C75.6383044,76.2282894 75.0689335,76.7968824 75.0689335,77.4958502 L75.0689335,78.4327645 C75.0689335,79.1317323 75.6383044,79.7003253 76.337619,79.7003253 L78.1151673,79.7003253 L78.1151673,88.5692849 C78.1151673,89.2563554 78.6959456,89.8368457 79.3833569,89.8368457 L80.487877,89.8368457 C81.1752883,89.8368457 81.7560665,89.2563554 81.7560665,88.5692849 L81.7560665,79.7003253 L83.5336149,79.7003253 C84.2329294,79.7003253 84.8018044,79.1317323 84.8018044,78.4327645 L84.8018044,77.4958502 C84.8018044,76.7968824 84.2329294,76.2282894 83.5336149,76.2282894" id="Fill-16" fill="#F2F2F2"></path>
                <path d="M96.6209141,76.2282894 L95.516394,76.2282894 C94.8170794,76.2282894 94.2482044,76.7968824 94.2482044,77.4958502 L94.2482044,81.2127726 L90.0235512,81.2127726 L90.0235512,77.4958502 C90.0235512,76.7968824 89.4546762,76.2282894 88.7548657,76.2282894 L87.6508415,76.2282894 C86.9629343,76.2282894 86.382156,76.8087797 86.382156,77.4958502 L86.382156,88.5692849 C86.382156,89.2563554 86.9629343,89.8368457 87.6508415,89.8368457 L88.7548657,89.8368457 C89.4546762,89.8368457 90.0235512,89.2682528 90.0235512,88.5692849 L90.0235512,84.6848085 L94.2482044,84.6848085 L94.2482044,88.5692849 C94.2482044,89.2682528 94.8170794,89.8368457 95.516394,89.8368457 L96.6209141,89.8368457 C97.3083254,89.8368457 97.8891036,89.2563554 97.8891036,88.5692849 L97.8891036,77.4958502 C97.8891036,76.8087797 97.3083254,76.2282894 96.6209141,76.2282894" id="Fill-18" fill="#F2F2F2"></path>
                <path d="M108.871317,76.2282894 L102.177241,76.2282894 C101.477926,76.2282894 100.908555,76.7968824 100.908555,77.4958502 L100.908555,88.5692849 C100.908555,89.2682528 101.477926,89.8368457 102.177241,89.8368457 L108.871317,89.8368457 C109.570632,89.8368457 110.139507,89.2682528 110.139507,88.5692849 L110.139507,87.6492252 C110.139507,86.9502574 109.570632,86.3816644 108.871317,86.3816644 L104.533088,86.3816644 L104.533088,84.6848085 L108.051483,84.6848085 C108.750301,84.6848085 109.319672,84.1162155 109.319672,83.4172477 L109.319672,82.4808291 C109.319672,81.7932629 108.738894,81.2127726 108.051483,81.2127726 L104.533088,81.2127726 L104.533088,79.7003253 L108.871317,79.7003253 C109.570632,79.7003253 110.139507,79.1317323 110.139507,78.4327645 L110.139507,77.4958502 C110.139507,76.7968824 109.570632,76.2282894 108.871317,76.2282894" id="Fill-20" fill="#F2F2F2"></path>
                <path d="M119.217353,80.7911612 C119.217353,81.4004034 118.717418,81.9154584 118.125728,81.9154584 L116.09722,81.9154584 L116.09722,79.750641 L118.125728,79.750641 C118.697083,79.750641 119.217353,80.2463629 119.217353,80.7911612 L119.217353,80.7911612 Z M120.724599,84.5492286 C122.062224,83.6832025 122.858252,82.3006343 122.858252,80.7579478 C122.858252,78.2600054 120.795523,76.2280416 118.25964,76.2280416 L113.707648,76.2280416 C113.008333,76.2280416 112.439458,76.7971302 112.439458,77.4960981 L112.439458,88.5695328 C112.439458,89.2685006 113.008333,89.8370936 113.707648,89.8370936 L114.795305,89.8370936 C115.483212,89.8370936 116.063494,89.2566033 116.063494,88.5695328 L116.063494,85.2536493 L117.054438,85.2536493 L119.016982,89.1624161 C119.221817,89.5718824 119.660252,89.8370936 120.134398,89.8370936 L121.439289,89.8370936 C121.900539,89.8370936 122.312192,89.6085658 122.540833,89.2258685 C122.76997,88.8426755 122.77741,88.3543895 122.560672,87.9518634 L120.724599,84.5492286 Z" id="Fill-22" fill="#F2F2F2"></path>
                <path d="M88.4813891,19.5325316 C95.0509778,26.0988632 95.0227077,36.0772484 88.4813891,42.6153239" id="Stroke-24" stroke="#FFC12D" stroke-width="6" stroke-linecap="round" stroke-linejoin="round"></path>
                <path d="M99.3818177,10.7492822 C110.950761,22.3124902 110.90166,39.8843427 99.3818177,51.3984741" id="Stroke-26" stroke="#FFC12D" stroke-width="6" stroke-linecap="round" stroke-linejoin="round"></path>
                <path d="M109.726415,0.247761782 C127.273258,17.7859052 127.198367,44.4369034 109.726415,61.9001929" id="Stroke-28" stroke="#FFC12D" stroke-width="6" stroke-linecap="round" stroke-linejoin="round"></path>
                <path d="M34.6249464,42.6152743 C28.0553577,36.0489427 28.0836278,26.0705575 34.6249464,19.532482" id="Stroke-30" stroke="#FFC12D" stroke-width="6" stroke-linecap="round" stroke-linejoin="round"></path>
                <path d="M23.7245177,51.3984741 C12.1555742,39.8352662 12.204675,22.2634137 23.7245177,10.7492822" id="Stroke-32" stroke="#FFC12D" stroke-width="6" stroke-linecap="round" stroke-linejoin="round"></path>
                <path d="M13.3799202,61.9000441 C-4.16692258,44.3619007 -4.09203145,17.7109025 13.3799202,0.247613065" id="Stroke-34" stroke="#FFC12D" stroke-width="6" stroke-linecap="round" stroke-linejoin="round"></path>
                <path d="M80.6278887,31.0738782 C80.6278887,42.1592102 71.6369855,51.1451603 60.5466508,51.1451603 C49.4558202,51.1451603 40.4649169,42.1592102 40.4649169,31.0738782 C40.4649169,19.9885461 49.4558202,11.0025961 60.5466508,11.0025961 C71.6369855,11.0025961 80.6278887,19.9885461 80.6278887,31.0738782" id="Fill-36" fill="#2F344C"></path>
                <g id="Group-48" transform="translate(62.491935, 33.491960)" fill="#999999">
                    <path d="M14.9837806,0.0047093576 L14.4888048,0.0047093576 C14.2507403,7.60164675 7.99410726,13.7084442 0.336365323,13.7084442 L0.336365323,14.2026789 L0.336365323,14.6969136 C8.53967177,14.6969136 15.2397,8.14694079 15.4787565,0.0047093576 L14.9837806,0.0047093576 Z" id="Fill-38"></path>
                    <path d="M12.432225,0.0047093576 L11.9372492,0.0047093576 C11.7001766,6.19577957 6.58774113,11.1599382 0.33656371,11.1599382 L0.33656371,11.6541729 L0.33656371,12.1484076 C7.13330565,12.1484076 12.6891363,6.74107361 12.9272008,0.0047093576 L12.432225,0.0047093576 Z" id="Fill-40"></path>
                    <path d="M9.84228145,0.0047093576 L9.34730565,0.0047093576 C9.11221694,4.76909208 5.16034597,8.57276586 0.33656371,8.57276586 L0.33656371,9.06700054 L0.33656371,9.56173095 C5.70591048,9.56173095 10.1011766,5.31438612 10.3372573,0.0047093576 L9.84228145,0.0047093576 Z" id="Fill-42"></path>
                    <path d="M7.21404919,0.0047093576 L6.71808145,0.0047093576 C6.48646452,3.32207999 3.71350887,5.9513887 0.336464516,5.9513887 L0.336464516,6.44562339 L0.336464516,6.93985807 C4.25956935,6.93985807 7.47641613,3.86786975 7.71001694,0.0047093576 L7.21404919,0.0047093576 Z" id="Fill-44"></path>
                    <path d="M4.85949194,0.0047093576 L4.36154032,0.0047093576 C4.1373629,2.02626307 2.41784274,3.60414573 0.336762097,3.60414573 L0.336762097,4.09838042 L0.336762097,4.5926151 C2.96390323,4.5926151 5.12681855,2.57254855 5.35496371,0.0047093576 L4.85949194,0.0047093576 Z" id="Fill-46"></path>
                </g>
                <g id="Group-59" transform="translate(42.653226, 13.167364)" fill="#999999">
                    <path d="M0.817454032,15.1788544 L1.31242984,15.1788544 C1.55049435,7.58191702 7.80712742,1.47511952 15.4648694,1.47511952 L15.4648694,0.98088483 L15.4648694,0.486650143 C7.2615629,0.486650143 0.561534677,7.03662298 0.322478226,15.1788544 L0.817454032,15.1788544 Z" id="Fill-49"></path>
                    <path d="M3.36900968,15.1788544 L3.86398548,15.1788544 C4.10105806,8.98778419 9.21349355,4.02362556 15.464671,4.02362556 L15.464671,3.52939087 L15.464671,3.03515619 C8.66792903,3.03515619 3.11209839,8.44249015 2.87403387,15.1788544 L3.36900968,15.1788544 Z" id="Fill-51"></path>
                    <path d="M5.95895323,15.1788544 L6.45392903,15.1788544 C6.68901774,10.4144717 10.6408887,6.61079791 15.464671,6.61079791 L15.464671,6.11656322 L15.464671,5.62183281 C10.0953242,5.62183281 5.70005806,9.86917764 5.46397742,15.1788544 L5.95895323,15.1788544 Z" id="Fill-53"></path>
                    <path d="M8.58718548,15.1788544 L9.08315323,15.1788544 C9.31477016,11.8614838 12.0877258,9.23217506 15.4647702,9.23217506 L15.4647702,8.73794038 L15.4647702,8.24370569 C11.5416653,8.24370569 8.32481855,11.315694 8.09121774,15.1788544 L8.58718548,15.1788544 Z" id="Fill-55"></path>
                    <path d="M10.9417427,15.1788544 L11.4396944,15.1788544 C11.6638718,13.1573007 13.382896,11.579418 15.4644726,11.579418 L15.4644726,11.0851833 L15.4644726,10.5909487 C12.8373315,10.5909487 10.6744161,12.6110152 10.446271,15.1788544 L10.9417427,15.1788544 Z" id="Fill-57"></path>
                </g>
                <path d="M65.8298976,31.0738782 C65.8298976,33.9693895 63.4814903,36.3171282 60.5840468,36.3171282 C57.6870992,36.3171282 55.3386919,33.9693895 55.3386919,31.0738782 C55.3386919,28.1783668 57.6870992,25.8306281 60.5840468,25.8306281 C63.4814903,25.8306281 65.8298976,28.1783668 65.8298976,31.0738782" id="Fill-60" fill="#544D7E"></path>
                <path d="M60.5842948,26.0787865 C57.828202,26.0787865 55.5864278,28.319945 55.5864278,31.0741756 C55.5864278,33.8284062 57.828202,36.069069 60.5842948,36.069069 C63.3398915,36.069069 65.5816657,33.8284062 65.5816657,31.0741756 C65.5816657,28.319945 63.3398915,26.0787865 60.5842948,26.0787865 M60.5842948,36.5647908 C57.5549238,36.5647908 55.0904601,34.101549 55.0904601,31.0741756 C55.0904601,28.0463065 57.5549238,25.5830646 60.5842948,25.5830646 C63.6131698,25.5830646 66.0776335,28.0463065 66.0776335,31.0741756 C66.0776335,34.101549 63.6131698,36.5647908 60.5842948,36.5647908" id="Fill-62" fill="#FFFFFF"></path>
                <path d="M61.3718915,31.0738782 C61.3718915,31.5086262 61.0192585,31.8610845 60.5842948,31.8610845 C60.149331,31.8610845 59.796698,31.5086262 59.796698,31.0738782 C59.796698,30.6391301 60.149331,30.2866719 60.5842948,30.2866719 C61.0192585,30.2866719 61.3718915,30.6391301 61.3718915,31.0738782" id="Fill-64" fill="#FFFFFF"></path>
            </g>
        </g>
    </g>
</svg>